<svg width="80" height="70" viewBox="0 0 80 70" fill="none" xmlns="http://www.w3.org/2000/svg">
<path fill-rule="evenodd" clip-rule="evenodd" d="M56.5 70C69 69.5 76.5 61.5 80 54.5C74.5 46.5 68.5 42.5 56.5 39C44.5 42 37.5 46 33 54.5C37 62.5 44.5 68.5 56.5 70ZM57 67C63.6274 67 69 61.6274 69 55C69 48.3726 63.6274 43 57 43C50.3726 43 45 48.3726 45 55C45 61.6274 50.3726 67 57 67Z" fill="#FF8A80"/>
<circle cx="57" cy="55" r="8" fill="#FF8A80"/>
<path d="M45 17C45 26.3888 38.732 34 31 34C23.268 34 17 26.3888 17 17C17 7.61116 23.268 0.5 31 0.5C38.732 0.5 45 7.61116 45 17Z" fill="#FF8A80"/>
<rect x="23" y="25" width="15" height="20" fill="#FF8A80"/>
<path fill-rule="evenodd" clip-rule="evenodd" d="M9.31241 40.0302C4.10812 41.1935 0.324145 45.693 0.070493 51.0196C-0.243364 57.6106 4.89226 63.1859 11.4868 63.4133L33.9592 64.1882C34.9556 64.2226 35.9237 64.1602 36.8569 64.0108C33.9754 61.2732 31.7095 58.0518 30 54.5C33.5433 47.5471 38.4358 43.1169 45.602 39.8647C42.1328 35.8485 36.6542 33.9185 31.2567 35.125L9.31241 40.0302Z" fill="#FF8A80"/>
</svg>
